<svg width="25" height="25" viewBox="0 0 25 25" fill="none" xmlns="http://www.w3.org/2000/svg">
<path d="M4.84826 15.4775H3.78303C3.218 15.4775 2.67611 15.253 2.27658 14.8532C1.87704 14.4535 1.65259 13.9114 1.65259 13.3461V3.75455C1.65259 3.18926 1.87704 2.64711 2.27658 2.2474C2.67611 1.84767 3.218 1.62311 3.78303 1.62311H13.37C13.9351 1.62311 14.4769 1.84767 14.8765 2.2474C15.2761 2.64711 15.5005 3.18926 15.5005 3.75455V4.82027M11.2396 9.08316H20.8266C22.0032 9.08316 22.957 10.0375 22.957 11.2146V20.8061C22.957 21.9833 22.0032 22.9376 20.8266 22.9376H11.2396C10.063 22.9376 9.10915 21.9833 9.10915 20.8061V11.2146C9.10915 10.0375 10.063 9.08316 11.2396 9.08316Z" stroke="white" stroke-width="2.81691" stroke-linecap="round" stroke-linejoin="round"/>
</svg>
