<svg width="32" height="32" viewBox="0 0 32 32" fill="none" xmlns="http://www.w3.org/2000/svg">
<g clip-path="url(#clip0_982_899)">
<mask id="mask0_982_899" style="mask-type:luminance" maskUnits="userSpaceOnUse" x="0" y="0" width="32" height="32">
<path d="M32 0H0V32H32V0Z" fill="white"/>
</mask>
<g mask="url(#mask0_982_899)">
<g opacity="0.756035">
<path d="M16.0004 6.16602C21.4318 6.16602 25.8348 10.569 25.8348 16.0004C25.8348 21.4318 21.4318 25.8348 16.0004 25.8348C10.569 25.8348 6.16602 21.4318 6.16602 16.0004C6.16602 10.569 10.569 6.16602 16.0004 6.16602Z" fill="#FFD401"/>
<g filter="url(#filter0_d_982_899)">
<path d="M16.0004 6.16602C21.4318 6.16602 25.8348 10.569 25.8348 16.0004C25.8348 21.4318 21.4318 25.8348 16.0004 25.8348C10.569 25.8348 6.16602 21.4318 6.16602 16.0004C6.16602 10.569 10.569 6.16602 16.0004 6.16602Z" stroke="black" stroke-width="2" shape-rendering="crispEdges"/>
</g>
</g>
<path d="M16.0924 10.6201C19.1141 10.6201 21.5636 13.0697 21.5636 16.0918C21.5636 19.1135 19.1141 21.5627 16.0924 21.5627C13.0707 21.5627 10.6211 19.1135 10.6211 16.0918C10.6211 13.0697 13.0707 10.6201 16.0924 10.6201Z" fill="#4B4738"/>
</g>
</g>
<defs>
<filter id="filter0_d_982_899" x="1.16602" y="5.16602" width="29.6689" height="29.6689" filterUnits="userSpaceOnUse" color-interpolation-filters="sRGB">
<feFlood flood-opacity="0" result="BackgroundImageFix"/>
<feColorMatrix in="SourceAlpha" type="matrix" values="0 0 0 0 0 0 0 0 0 0 0 0 0 0 0 0 0 0 127 0" result="hardAlpha"/>
<feOffset dy="4"/>
<feGaussianBlur stdDeviation="2"/>
<feComposite in2="hardAlpha" operator="out"/>
<feColorMatrix type="matrix" values="0 0 0 0 0 0 0 0 0 0 0 0 0 0 0 0 0 0 0.25 0"/>
<feBlend mode="normal" in2="BackgroundImageFix" result="effect1_dropShadow_982_899"/>
<feBlend mode="normal" in="SourceGraphic" in2="effect1_dropShadow_982_899" result="shape"/>
</filter>
<clipPath id="clip0_982_899">
<rect width="32" height="32" fill="white"/>
</clipPath>
</defs>
</svg>
