<svg width="1031" height="1038" viewBox="0 0 1031 1038" fill="none" xmlns="http://www.w3.org/2000/svg">
<path opacity="0.3" d="M605.945 1031.17L515.504 518.627L691.904 1007.99L605.945 1031.17ZM471.003 1037.26L605.945 1031.17L515.504 518.64L471.003 1037.26ZM425.053 1031.17L515.491 518.627L339.092 1008.01L425.053 1031.17ZM339.092 1008.01L515.504 518.627L219.22 945.396L339.092 1008.01ZM182.442 917.019L515.491 518.64L119.521 853.698L182.442 917.019ZM119.521 853.698L515.504 518.627L46.8137 739.177L119.521 853.698ZM29.083 696.095L515.491 518.627L0 563.4L29.083 696.095ZM0 563.4L515.491 518.64L0 473.868V563.4ZM6.0565 427.637L515.504 518.627L43.6029 295.755L6.0565 427.637ZM46.8137 298.088L515.491 518.64L91.3159 220.552L46.8137 298.088ZM119.521 183.551L515.491 518.627L182.442 120.248L119.521 183.551ZM182.442 120.248L515.504 518.64L296.287 47.0983L182.442 120.248ZM339.092 29.2598L515.491 518.627L425.053 6.09336L339.092 29.2598ZM425.053 6.09336L515.491 518.627L559.993 0L425.053 6.09336ZM605.945 6.07862L515.504 518.627L691.89 29.2598L605.945 6.07862ZM691.89 29.2598L515.491 518.627L811.778 91.871L691.89 29.2598ZM848.542 120.248L515.491 518.627L911.461 183.551L848.542 120.248ZM911.461 183.551L515.491 518.627L984.17 298.073L911.461 183.551ZM1001.92 341.153L515.491 518.627L1024.94 427.637L1001.92 341.153ZM1024.94 427.637L515.504 518.627L1031 563.382L1024.94 427.637ZM1024.94 609.628L515.491 518.64L1001.9 696.113L1024.94 609.628ZM1001.9 696.113L515.491 518.627L939.681 816.714L1001.9 696.113ZM911.475 853.698L515.491 518.627L848.542 917.002L911.475 853.698ZM848.542 917.002L515.491 518.627L734.713 990.151L848.542 917.002Z" fill="url(#paint0_radial_233_3)"/>
<defs>
<radialGradient id="paint0_radial_233_3" cx="0" cy="0" r="1" gradientUnits="userSpaceOnUse" gradientTransform="translate(515.5 487.752) rotate(90) scale(489.892 486.934)">
<stop stop-color="white"/>
<stop offset="1" stop-color="white" stop-opacity="0"/>
</radialGradient>
</defs>
</svg>
