<svg width="179" height="81" viewBox="0 0 179 81" fill="none" xmlns="http://www.w3.org/2000/svg">
<g filter="url(#filter0_f_0_20)">
<ellipse cx="89.5" cy="40.5" rx="61.5" ry="12.5" fill="black"/>
<path d="M149 40.5C149 40.6476 148.935 41.01 148.341 41.6002C147.742 42.1951 146.753 42.8649 145.301 43.5629C142.405 44.9544 138.087 46.2614 132.589 47.3789C121.626 49.6071 106.391 51 89.5 51C72.6094 51 57.3741 49.6071 46.4113 47.3789C40.9134 46.2614 36.5949 44.9544 33.6992 43.5629C32.2468 42.8649 31.2578 42.1951 30.6589 41.6002C30.0647 41.01 30 40.6476 30 40.5C30 40.3524 30.0647 39.99 30.6589 39.3998C31.2578 38.8049 32.2468 38.1351 33.6992 37.4371C36.5949 36.0456 40.9134 34.7385 46.4113 33.6211C57.3741 31.3929 72.6094 30 89.5 30C106.391 30 121.626 31.3929 132.589 33.6211C138.087 34.7385 142.405 36.0456 145.301 37.4371C146.753 38.1351 147.742 38.8049 148.341 39.3998C148.935 39.99 149 40.3524 149 40.5Z" stroke="#FFD93C" stroke-width="4"/>
</g>
<defs>
<filter id="filter0_f_0_20" x="0.299999" y="0.299999" width="178.4" height="80.4" filterUnits="userSpaceOnUse" color-interpolation-filters="sRGB">
<feFlood flood-opacity="0" result="BackgroundImageFix"/>
<feBlend mode="normal" in="SourceGraphic" in2="BackgroundImageFix" result="shape"/>
<feGaussianBlur stdDeviation="13.85" result="effect1_foregroundBlur_0_20"/>
</filter>
</defs>
</svg>
