<svg width="29" height="30" viewBox="0 0 29 30" fill="none" xmlns="http://www.w3.org/2000/svg">
<path fill-rule="evenodd" clip-rule="evenodd" d="M25.8761 0.778526C27.4373 0.00905567 29.111 1.55436 28.8354 3.51082L25.5793 26.6195C25.2653 28.8476 23.1746 30.1261 21.4283 29.0157C19.9669 28.0866 17.7988 26.6566 15.8448 25.1621C14.869 24.4157 11.8813 22.0227 12.2486 20.3192C12.5626 18.8626 17.5852 13.39 20.4554 10.1353C21.5828 8.85688 21.0694 8.11831 19.7379 9.29542C16.4349 12.2154 11.1319 16.655 9.37832 17.9044C7.8311 19.0067 7.02326 19.1949 6.05966 19.0067C4.30005 18.6635 2.66868 18.1321 1.3368 17.4858C-0.463338 16.6123 -0.375654 13.7167 1.33558 12.8734L25.8761 0.778526Z" fill="#1F2024"/>
</svg>
